<svg width="161" height="166" viewBox="0 0 161 166" fill="none" xmlns="http://www.w3.org/2000/svg">
  <path d="M207 8.5V33.146V286.5C207 288.157 208.343 289.5 210 289.5H282C283.657 289.5 285 288.157 285 286.5V8.5C285 6.84315 283.657 5.5 282 5.5H210C208.343 5.5 207 6.84315 207 8.5Z" fill="#E84532"/>
  <path fill-rule="evenodd" clip-rule="evenodd" d="M133 295.5C207.835 295.5 244 220.238 244 138.5C244 56.7619 202.335 0 127.5 0C52.6654 0 0 65.7619 0 147.5C0 229.238 58.1654 295.5 133 295.5ZM104 99.5H169.74C173.033 99.5 176.115 101.121 177.98 103.835L204.085 141.805C206.441 145.232 206.43 149.76 204.057 153.176L177.983 190.706C176.115 193.396 173.047 195 169.771 195H104C98.4771 195 94 190.523 94 185V109.5C94 103.977 98.4771 99.5 104 99.5Z" fill="#E84532"/>
</svg>
